<?xml version="1.0" encoding="utf-8"?>
<!-- Generator: Adobe Illustrator 28.0.0, SVG Export Plug-In . SVG Version: 6.00 Build 0)  -->
<svg version="1.1" id="Layer_1" xmlns="http://www.w3.org/2000/svg" xmlns:xlink="http://www.w3.org/1999/xlink" x="0px" y="0px"
	 viewBox="0 0 500 184" style="enable-background:new 0 0 500 184;" xml:space="preserve">
<style type="text/css">
	.st0{fill:#414143;}
	.st1{fill:url(#SVGID_1_);}
	.st2{fill:#8EDFE3;}
</style>
<g>
	<path class="st0" d="M11.5,136.86v-31.82c0-8.28,6.13-14.42,14.25-14.42c8.12,0,14.25,6.13,14.25,14.42v34.14
		c0,6.96,5.14,12.1,12.1,12.1c6.96,0,11.93-5.14,11.93-12.1v-34.14c0-8.28,5.97-14.42,14.25-14.42c8.12,0,14.25,6.13,14.25,14.42
		v31.82c0,24.03-16.57,40.6-40.43,40.6C28.08,177.46,11.5,160.89,11.5,136.86z"/>
	<path class="st0" d="M184.24,124.43v38.61c0,8.28-6.13,14.42-14.25,14.42c-8.12,0-14.25-6.13-14.25-14.42v-34.47
		c0-7.29-4.97-12.26-12.1-12.26c-7.12,0-11.93,4.97-11.93,12.26v34.47c0,8.28-6.13,14.42-14.25,14.42
		c-8.12,0-14.25-6.13-14.25-14.42v-58c0-8.28,5.97-14.42,13.92-14.42c5.8,0,10.44,3.31,12.59,8.28c5.8-5.14,13.92-8.28,22.87-8.28
		C171.81,90.63,184.24,103.88,184.24,124.43z"/>
	<path class="st0" d="M193.36,163.04v-58c0-8.28,5.97-14.42,14.25-14.42c8.12,0,14.25,6.13,14.25,14.42v58
		c0,8.28-5.97,14.42-14.25,14.42C199.49,177.46,193.36,171.33,193.36,163.04z"/>
	
		<radialGradient id="SVGID_1_" cx="298.8744" cy="-144.2596" r="148.4461" gradientTransform="matrix(0.8177 0 0 0.8177 69.8916 226.539)" gradientUnits="userSpaceOnUse">
		<stop  offset="0" style="stop-color:#B29BC9"/>
		<stop  offset="1" style="stop-color:#685DA7"/>
	</radialGradient>
	<path class="st1" d="M318.14,99.24c-0.01,10.82-9.19,19.41-20.01,19.41h-20.59v37.13c0,12.28-8.71,21.41-20.89,21.67
		c-12.15,0.26-21.97-9.94-21.97-22.09V65.85c0-30.85,25-55.85,55.85-55.85h38.59c11.47,0,19.7,8.23,19.69,19.21
		c-0.01,10.82-9.19,19.42-20.01,19.42h-35.15c-8.9,0-16.11,7.21-16.11,16.11v15.29h20.92C309.93,80.02,318.16,88.26,318.14,99.24z
		 M450.4,105.94v0.5c0,12.21-9.47,20.68-22.43,20.68h-59.81c4.49,9.47,13.71,14.2,27.66,14.2c6.98,0,15.2-1.49,21.68-4.24
		c2.99-1.24,5.23-1.99,7.73-1.99c9.47,0,16.94,7.23,16.94,16.7c0,6.98-3.24,12.21-10.71,16.44c-10.71,5.98-23.67,9.22-37.13,9.22
		c-40.37,0-70.02-27.66-70.02-65.29c0-34.21,23.91-60.78,56.91-64.76c-0.61,1.79-1.1,3.7-1.24,5.7
		c-0.75,9.72,5.73,19.44,18.19,20.43c5.98,0.5,12.71-2.99,16.95-9.22l6.32-9.37C439.09,64.99,450.4,83.56,450.4,105.94z
		 M409.78,99.21c-0.5-10.72-8.97-18.69-20.68-18.69c-10.97,0-19.19,7.23-22.43,18.69H409.78z"/>
	<path class="st0" d="M224.51,63.29c0,9.11-7.79,16.24-17.07,16.24c-9.28,0-16.9-7.12-16.9-16.24c0-9.28,7.62-16.4,16.9-16.4
		C216.72,46.88,224.51,54.01,224.51,63.29z"/>
	<path class="st2" d="M469.14,40.93c-10.97,0-19.98,8.42-19.98,19.4c0,10.78,9.01,19.2,19.98,19.2c10.97,0,20.18-8.42,20.18-19.2
		C489.32,49.35,480.11,40.93,469.14,40.93z M466.78,55.88h-3.21v10.69c0,1.24-0.92,2.16-2.14,2.16c-1.22,0-2.14-0.92-2.14-2.16
		V55.88h-3.21c-1.12,0-1.96-0.82-1.96-1.94c0-1.09,0.85-1.91,1.96-1.91h10.69c1.14,0,1.96,0.82,1.96,1.91
		C468.74,55.06,467.9,55.88,466.78,55.88z M478.98,67.31c-0.4,0.94-1.07,1.42-2.04,1.42c-0.97,0-1.64-0.47-2.04-1.42l-5.15-12.5
		c-0.15-0.27-0.22-0.67-0.22-1.04c0-1.17,0.89-2.04,2.11-2.04c0.92,0,1.62,0.52,2.01,1.54l3.28,8.18l3.28-8.18
		c0.4-1.02,1.09-1.54,2.01-1.54c1.22,0,2.11,0.87,2.11,2.04c0,0.37-0.07,0.77-0.22,1.04L478.98,67.31z"/>
</g>
</svg>
